<?xml version="1.0" encoding="UTF-8"?>
<svg version="1.1" xmlns="http://www.w3.org/2000/svg" width="1254" height="1254" viewBox="0 0 1254 1254">

<path d="M0 0 C4.55899517 3.26586951 8.8424221 6.87651968 13.14355469 10.47021484 C15.85290561 12.70282832 18.63966164 14.81655802 21.4375 16.9375 C27.0767797 21.23351218 32.57099095 25.69570426 38.05834961 30.18334961 C43.17571154 34.35789423 48.38405185 38.38734712 53.63671875 42.390625 C58.26062151 45.9472592 62.76421686 49.65440588 67.26953125 53.359375 C71.17427234 56.55998245 75.14679194 59.63903546 79.19848633 62.65136719 C81.40279738 64.30153852 83.54947526 66.01501404 85.6875 67.75 C89.58542602 70.88750112 93.52791772 73.95767748 97.5 77 C98.60560427 77.85138654 99.71107446 78.70294723 100.81640625 79.5546875 C102.81500213 81.09410583 104.82247505 82.61770478 106.83984375 84.1328125 C114.33306323 89.8794921 119.96166784 95.88255005 123 105 C123.37719816 108.62146741 123.37719816 108.62146741 123.38031673 112.56448841 C123.38497665 113.29725841 123.38963657 114.03002842 123.3944377 114.78500357 C123.40637076 117.23582531 123.39699901 119.68609093 123.38768005 122.13691711 C123.39185372 123.91362396 123.39733142 125.69032814 123.40399987 127.46702737 C123.41846903 132.3460372 123.41420511 137.22487832 123.40683305 142.10389745 C123.40210729 147.36715306 123.41460606 152.63037187 123.42485046 157.89361572 C123.4420559 168.20388257 123.44287478 178.51408853 123.43763756 188.82436601 C123.43359756 197.20465044 123.4350374 205.58491686 123.44038582 213.96520042 C123.44113424 215.15754546 123.44188266 216.3498905 123.44265376 217.5783672 C123.44418523 220.00056615 123.44572358 222.4227651 123.44726873 224.84496405 C123.46100031 247.56592311 123.45555166 270.28684775 123.44408352 293.00780603 C123.43415237 313.79375542 123.44708863 334.57961579 123.47101771 355.36555145 C123.4954015 376.70724482 123.50501823 398.0488967 123.49836498 419.39060372 C123.49487092 431.37283332 123.49711712 443.35499445 123.51461601 455.33721352 C123.52932903 465.53843488 123.52998525 475.73953957 123.5125451 485.94075862 C123.50402502 491.145029 123.50191025 496.34909088 123.51719666 501.55335045 C123.53102367 506.3198037 123.526306 511.08586946 123.50695742 515.85230019 C123.50319099 517.57432902 123.50613788 519.29638874 123.51656907 521.0183901 C123.58489528 533.16385977 122.592675 543.09086209 113.93359375 552.30859375 C107.44403265 557.98532094 100.25900626 559.3366818 91.8671875 559.203125 C82.53393951 558.54191397 76.90827645 553.95432629 70 548 C68.3158722 546.62087172 66.6282427 545.24601072 64.9375 543.875 C59.37117297 539.31140139 53.81717111 534.73283087 48.26171875 530.15600586 C41.31552978 524.43420629 34.35979939 518.72453049 27.37109375 513.0546875 C26.72197021 512.5280249 26.07284668 512.0013623 25.40405273 511.45874023 C24.04558773 510.35657088 22.68702571 509.25452109 21.32836914 508.15258789 C16.32157274 504.08680808 11.34515554 499.98543469 6.375 495.875 C1.22131232 491.61439969 -3.97269738 487.41895889 -9.25 483.3125 C-14.92973136 478.8921487 -20.43619695 474.29652473 -25.91015625 469.625 C-30.54424805 465.6739638 -35.27533704 461.84180623 -40 458 C-45.63249398 453.40785122 -51.24657691 448.79771793 -56.8125 444.125 C-61.1033523 440.53729382 -65.45871668 437.05648035 -69.875 433.625 C-75.37456774 429.34637583 -80.6946618 424.89524951 -85.96484375 420.33813477 C-91.22755784 415.78857154 -96.59346425 411.37773302 -102 407 C-103.28404363 405.95726452 -104.5678839 404.91427858 -105.8515625 403.87109375 C-107.93399241 402.17882565 -110.01647296 400.48662087 -112.09936523 398.79492188 C-119.07428376 393.12971142 -126.03911219 387.45269822 -132.9609375 381.72265625 C-139.66658119 376.17641737 -146.38125615 370.65614823 -153.25 365.3125 C-158.40829782 361.29951043 -163.42648502 357.15010369 -168.39648438 352.90673828 C-172.2549883 349.61573052 -176.18157552 346.4300181 -180.15625 343.28125 C-183.88653051 340.28882717 -187.56571953 337.23625025 -191.25 334.1875 C-196.52849696 329.8224105 -201.84299398 325.51735548 -207.25 321.3125 C-212.31276508 317.37471405 -217.22992214 313.29915077 -222.10205078 309.12866211 C-226.610893 305.2869096 -231.24328981 301.62139727 -235.91455078 297.97998047 C-240.33544129 294.53195611 -244.68986304 291.01144208 -249.01953125 287.44921875 C-252.69033232 284.43271512 -256.37515091 281.43373843 -260.0625 278.4375 C-260.75714355 277.87305176 -261.45178711 277.30860352 -262.16748047 276.72705078 C-266.53806818 273.17886874 -270.92571021 269.6531672 -275.328125 266.14453125 C-279.5153382 262.78374171 -283.67014468 259.3831456 -287.83154297 255.99047852 C-292.22262054 252.41944626 -296.6561908 248.9105007 -301.125 245.4375 C-306.47709223 241.2719851 -311.63462556 236.91927646 -316.75708008 232.47583008 C-321.24203172 228.60368246 -325.85024549 224.92415746 -330.53027344 221.29174805 C-335.3397731 217.54812665 -340.0535889 213.69678468 -344.75 209.8125 C-349.92451682 205.53295756 -355.11532522 201.2812769 -360.37109375 197.1015625 C-363.804223 194.35709959 -367.21482551 191.58540322 -370.625 188.8125 C-371.29885742 188.26480957 -371.97271484 187.71711914 -372.66699219 187.15283203 C-376.27428196 184.21988945 -379.87869403 181.28346259 -383.48046875 178.34375 C-384.2060498 177.75231201 -384.93163086 177.16087402 -385.67919922 176.55151367 C-387.0736687 175.41477688 -388.46726146 174.27696353 -389.85986328 173.13793945 C-390.49005371 172.62448975 -391.12024414 172.11104004 -391.76953125 171.58203125 C-392.32229736 171.13061768 -392.87506348 170.6792041 -393.44458008 170.21411133 C-394.90951739 169.07062785 -396.45372999 168.03084667 -398 167 C-398.29765117 209.10735758 -398.52667349 251.21459364 -398.66384928 293.32279511 C-398.68010818 298.29568349 -398.6969344 303.26856979 -398.71411133 308.24145508 C-398.71752136 309.23145377 -398.7209314 310.22145246 -398.72444477 311.24145111 C-398.78098964 327.2648614 -398.88347575 343.28766446 -399.00298635 359.3107147 C-399.12462041 375.75580039 -399.19677733 392.20056839 -399.22315043 408.64608544 C-399.24097571 418.79167364 -399.29723801 428.9355455 -399.40291407 439.08060523 C-399.4717127 446.04054534 -399.49238421 452.9996002 -399.47551791 459.95985553 C-399.46720162 463.97444793 -399.47980364 467.98604549 -399.54967117 472.000103 C-400.71449936 488.56164266 -400.71449936 488.56164266 -395.14288902 503.28325462 C-392.07273995 506.22917998 -388.78671367 508.09722104 -385 510 C-383.68067916 510.99562637 -382.38228531 512.02085066 -381.125 513.09375 C-380.09375 513.8878125 -379.0625 514.681875 -378 515.5 C-372.36089169 519.87295994 -366.91083391 524.42264562 -361.5234375 529.1015625 C-358.37678335 531.76187784 -355.0811888 534.21813819 -351.77978516 536.68115234 C-350.94511467 537.30542366 -350.94511467 537.30542366 -350.09358215 537.94230652 C-348.72961425 538.96228627 -347.36488363 539.98124594 -346 541 C-346.00368717 539.74986366 -346.00737434 538.49972733 -346.01117325 537.21170807 C-346.09783126 507.52650923 -346.16377535 477.84134304 -346.20426132 448.15604869 C-346.20926406 444.50116765 -346.21444136 440.84628689 -346.21972656 437.19140625 C-346.2207758 436.46379473 -346.22182505 435.73618321 -346.22290608 434.98652285 C-346.24030456 423.20987464 -346.27183916 411.43330465 -346.30861118 399.65670282 C-346.34603615 387.57005643 -346.36823913 375.48345097 -346.37635398 363.39674902 C-346.38134678 356.608974 -346.39334101 349.82136199 -346.42292023 343.03364563 C-346.45007204 336.64463559 -346.4584453 330.25587592 -346.45243073 323.86681366 C-346.45353105 321.52227671 -346.46148603 319.17773138 -346.4768219 316.83324432 C-346.49674548 313.63026243 -346.49192981 310.42822379 -346.48101807 307.22521973 C-346.49266943 306.29913107 -346.5043208 305.37304242 -346.51632524 304.41889048 C-346.45271471 297.50307598 -344.80873216 292.18322978 -340.18359375 286.94140625 C-339.60738281 286.48636719 -339.03117187 286.03132813 -338.4375 285.5625 C-337.85871094 285.08941406 -337.27992188 284.61632812 -336.68359375 284.12890625 C-333.85451316 282.23191254 -331.13990386 281.77811947 -327.8125 281.625 C-327.09707031 281.57601563 -326.38164062 281.52703125 -325.64453125 281.4765625 C-318.38798545 282.91286551 -312.37052205 288.97701728 -306.875 293.625 C-305.37475992 294.87757516 -303.87344338 296.12886208 -302.37109375 297.37890625 C-301.6322998 297.9939502 -300.89350586 298.60899414 -300.13232422 299.24267578 C-297.10783137 301.7352679 -294.03049598 304.15579324 -290.9375 306.5625 C-284.44265607 311.62374655 -278.05394437 316.80935818 -271.671875 322.01171875 C-268.79387546 324.35721533 -265.90344164 326.68601547 -263 329 C-257.93297685 333.03992386 -252.90945383 337.13271376 -247.8828125 341.22265625 C-244.26680281 344.16322262 -240.64426075 347.09444076 -237 350 C-227.23523052 357.78876216 -217.57332158 365.70691762 -207.91015625 373.62109375 C-199.96736009 380.1139298 -192.0201455 386.60281818 -184 393 C-177.67079893 398.04854333 -171.39856399 403.16725799 -165.11865234 408.27685547 C-163.01353476 409.98899189 -160.90736134 411.69981969 -158.80078125 413.41015625 C-150.26194187 420.34298855 -141.73690294 427.29217428 -133.234375 434.26953125 C-128.94507221 437.78604066 -124.64858587 441.29128267 -120.3125 444.75 C-113.87204853 449.88811689 -107.48742886 455.09475477 -101.09667969 460.29443359 C-97.73237289 463.03116477 -94.36614219 465.7655269 -91 468.5 C-86.92866267 471.80733576 -82.85785082 475.11530983 -78.7890625 478.42578125 C-72.43594296 483.5936173 -66.07631746 488.75125706 -59.671875 493.85546875 C-56.1827544 496.65594713 -52.71781898 499.48571822 -49.25 502.3125 C-44.14619603 506.47248675 -39.00766045 510.57977382 -33.8125 514.625 C-28.6091051 518.67929649 -23.55073871 522.8768815 -18.53564453 527.16113281 C-14.94995678 530.21767691 -11.29491222 533.14441702 -7.5546875 536.0078125 C-4.09801867 538.70337994 -0.70818078 541.47822804 2.6875 544.25 C8.31410548 548.8395911 13.98372695 553.3651938 19.70751953 557.83276367 C24.20580178 561.35313081 28.63944957 564.94824196 33.0625 568.5625 C39.03874882 573.44376443 45.09075583 578.20515816 51.23046875 582.87890625 C53.84955886 584.88478203 56.43182885 586.92950004 59 589 C57.70447794 592.88656618 55.37352948 594.10850801 52.125 596.3125 C50.85414637 597.1934078 49.58469366 598.07633898 48.31640625 598.9609375 C47.62691895 599.44143555 46.93743164 599.92193359 46.22705078 600.41699219 C43.81864122 602.12891146 41.45220572 603.88917597 39.08984375 605.6640625 C37.83953369 606.60125122 37.83953369 606.60125122 36.56396484 607.55737305 C34.92638964 608.78819158 33.2924427 610.02385594 31.66259766 611.26489258 C23.44597264 617.40959707 15.52349892 621.03670157 5 620 C-1.86922492 618.52026578 -6.7185793 614.41687696 -12 610 C-13.79139387 608.54133159 -15.58307216 607.08301241 -17.375 605.625 C-19.25045553 604.08388752 -21.12545295 602.54221738 -23 601 C-24.83287057 599.49943458 -26.66620121 597.99943092 -28.5 596.5 C-31.19209947 594.29771834 -33.88392614 592.09511364 -36.57421875 589.890625 C-43.99712987 583.81027329 -51.44383656 577.75947027 -58.89306641 571.71142578 C-61.00636266 569.99483172 -63.11857769 568.27691621 -65.23046875 566.55859375 C-71.57695073 561.39580757 -77.93020143 556.24354752 -84.328125 551.14453125 C-87.8172456 548.34405287 -91.28218102 545.51428178 -94.75 542.6875 C-99.85380644 538.52751124 -104.99241688 534.42032766 -110.1875 530.375 C-115.36011465 526.34323099 -120.39606021 522.17656101 -125.38305664 517.91796875 C-129.37955339 514.50866986 -133.44740629 511.20578347 -137.5625 507.94140625 C-141.03091355 505.17890379 -144.45430343 502.36254718 -147.8828125 499.55078125 C-151.57910602 496.52224436 -155.28999827 493.51171492 -159 490.5 C-163.50647495 486.84117903 -168.00976129 483.17874979 -172.5 479.5 C-176.93383802 475.87050141 -181.36976473 472.24360314 -185.8125 468.625 C-186.8327124 467.79403809 -186.8327124 467.79403809 -187.87353516 466.94628906 C-192.33235143 463.32554847 -196.83897257 459.77323715 -201.375 456.25 C-206.24454317 452.462352 -210.8441555 448.48295353 -215.38671875 444.3046875 C-219.00520076 441.11350008 -222.80480659 438.18074511 -226.6171875 435.2265625 C-230.66475018 432.07942953 -234.60760437 428.83667874 -238.5 425.5 C-242.9155806 421.71790373 -247.40915943 418.06727568 -252 414.5 C-256.5908564 410.93271202 -261.08417337 407.28182473 -265.5 403.5 C-271.17717466 398.63896284 -277.00757125 393.99878766 -282.90625 389.41015625 C-285.62194245 387.29452211 -288.31422253 385.15334085 -291 383 C-290.99446924 384.12791332 -290.98893848 385.25582664 -290.98324013 386.41791916 C-290.84993264 413.88611486 -290.7513933 441.35426851 -290.68912697 468.82271957 C-290.65821354 482.10640465 -290.61608093 495.38979184 -290.54736328 508.67333984 C-290.4874847 520.25377971 -290.44883255 531.8340646 -290.43546903 543.41465497 C-290.42765973 549.54427864 -290.40935775 555.67345903 -290.36561966 561.80294037 C-290.32474554 567.57812082 -290.3123611 573.35267745 -290.32135391 579.12798882 C-290.31970991 581.24188317 -290.30786389 583.35579944 -290.28476715 585.46956825 C-290.15584978 597.88181025 -290.15316357 608.11022044 -298.7109623 617.97158432 C-304.43303517 623.65416498 -312.07819506 626.19492407 -320 626.5 C-330.98018034 626.01043782 -337.62377807 621.05084747 -345.58984375 613.98828125 C-348.89369166 611.05963374 -352.32272271 608.32747959 -355.8125 605.625 C-360.87942052 601.68021217 -365.89580398 597.6800156 -370.875 593.625 C-371.87406372 592.81144043 -371.87406372 592.81144043 -372.89331055 591.98144531 C-375.61034314 589.76700979 -378.32564359 587.55045552 -381.04101562 585.33398438 C-387.96288322 579.68632443 -394.89283171 574.05661397 -401.9375 568.5625 C-408.02895702 563.81095293 -413.9958673 558.91691102 -419.94921875 553.99389648 C-423.75818289 550.84461215 -427.57630352 547.71032026 -431.4375 544.625 C-432.19417969 544.0165625 -432.95085937 543.408125 -433.73046875 542.78125 C-435.33490992 541.52199841 -436.96549336 540.29572383 -438.61328125 539.09375 C-446.55412062 533.16458994 -451.26185516 526.56733324 -454 517 C-454.251849 513.58263546 -454.251849 513.58263546 -454.25447559 509.7532053 C-454.25768207 509.04263921 -454.26088855 508.33207312 -454.26419219 507.59997472 C-454.27249403 505.21879415 -454.26656732 502.83786499 -454.26069641 500.4566803 C-454.26371701 498.73232258 -454.26760603 497.0079662 -454.27228898 495.28361219 C-454.28258948 490.54480168 -454.28038194 485.80606665 -454.27610838 481.06724989 C-454.2736449 475.95673593 -454.28265059 470.84624031 -454.29014587 465.73573303 C-454.30290518 455.7237971 -454.30468505 445.71188797 -454.30234561 435.69994528 C-454.30056376 427.56370292 -454.30230924 419.42746872 -454.30657005 411.29122734 C-454.30716524 410.13396034 -454.30776043 408.97669334 -454.30837366 407.78435765 C-454.30958539 405.43350097 -454.31079952 403.08264429 -454.31201603 400.73178761 C-454.32289621 378.67810412 -454.32072675 356.6244359 -454.31463119 334.57075154 C-454.30946096 314.38734709 -454.32071944 294.20399088 -454.33972941 274.02059598 C-454.35909239 253.30385031 -454.36736655 232.58712749 -454.36360615 211.87037271 C-454.36169185 200.23643719 -454.36420399 188.60254274 -454.37832069 176.96861458 C-454.39021581 167.06520713 -454.39166037 157.16186605 -454.37953053 147.25845773 C-454.37362885 142.20446566 -454.37257798 137.1505951 -454.38453293 132.09661102 C-454.39534765 127.4709656 -454.39234112 122.84554377 -454.37827124 118.219909 C-454.37561213 116.5456816 -454.37802875 114.87143692 -454.38600711 113.19722641 C-454.39609741 110.9220926 -454.38770527 108.64773837 -454.37473011 106.37263584 C-454.37478513 105.10876154 -454.37484014 103.84488723 -454.37489682 102.5427137 C-453.67913323 95.9678615 -450.62754862 89.74703931 -446 85 C-436.42743872 78.28108869 -428.92069394 76.61040651 -417.19140625 78.4375 C-408.42483981 80.99941896 -401.94155712 87.44075753 -395.12792969 93.22998047 C-391.67360726 96.10329823 -388.0883822 98.79740456 -384.5 101.5 C-378.1373087 106.31823569 -371.91131236 111.27764793 -365.73828125 116.3359375 C-361.71010132 119.63027079 -357.63847426 122.84517787 -353.5 126 C-346.46554288 131.36541201 -339.62462693 136.95894971 -332.77294922 142.5546875 C-327.83711739 146.57838957 -322.85883134 150.54826533 -317.84375 154.47265625 C-310.82407938 159.96587489 -303.86827489 165.52710037 -296.96240234 171.1628418 C-292.67647971 174.65452003 -288.35707648 178.09762673 -284 181.5 C-276.9433259 187.01396823 -269.99703722 192.6591774 -263.05859375 198.32080078 C-247.49341547 211.05055359 -247.49341547 211.05055359 -231.73828125 223.54296875 C-225.34201415 228.52853033 -219.05512616 233.59907118 -212.89526367 238.87426758 C-209.00810225 242.18755673 -205.03289485 245.36627155 -201 248.5 C-195.85122701 252.50081257 -190.8464859 256.63390989 -185.89453125 260.875 C-182.0075059 264.18791264 -178.0326226 267.3664831 -174 270.5 C-168.85122701 274.50081257 -163.8464859 278.63390989 -158.89453125 282.875 C-155.0075059 286.18791264 -151.0326226 289.3664831 -147 292.5 C-141.85122701 296.50081257 -136.8464859 300.63390989 -131.89453125 304.875 C-128.0075059 308.18791264 -124.0326226 311.3664831 -120 314.5 C-114.85122701 318.50081257 -109.8464859 322.63390989 -104.89453125 326.875 C-101.0075059 330.18791264 -97.0326226 333.3664831 -93 336.5 C-87.85122701 340.50081257 -82.8464859 344.63390989 -77.89453125 348.875 C-74.0075059 352.18791264 -70.0326226 355.3664831 -66 358.5 C-60.85122701 362.50081257 -55.8464859 366.63390989 -50.89453125 370.875 C-47.0075059 374.18791264 -43.0326226 377.3664831 -39 380.5 C-33.85041818 384.50144106 -28.84459722 388.63487123 -23.89233398 392.87719727 C-20.02829148 396.17112556 -16.07442547 399.32602892 -12.0625 402.4375 C-6.64722092 406.64004474 -1.42803665 411.02405424 3.74755859 415.51708984 C8.32618688 419.47176655 13.04035503 423.21865868 17.8203125 426.92578125 C21.79871481 430.0230609 25.67101459 433.2202543 29.5 436.5 C34.41264782 440.7037209 39.42855347 444.74336185 44.53222656 448.71240234 C50.04147209 453.00470311 55.45245173 457.41370813 60.84692383 461.84912109 C61.81214966 462.63923584 61.81214966 462.63923584 62.796875 463.4453125 C63.36760742 463.91469238 63.93833984 464.38407227 64.52636719 464.86767578 C66.01847562 466.08855061 66.01847562 466.08855061 68 467 C68.10132976 423.69475776 68.15014318 380.3897332 68.12847102 337.08436847 C68.12595779 331.97242416 68.1238796 326.86047976 68.12207031 321.74853516 C68.12151905 320.22198343 68.12151905 320.22198343 68.12095664 318.66459227 C68.11604262 302.18348493 68.1463757 285.70262122 68.18972255 269.22157824 C68.23341252 252.31194732 68.23925301 235.40260917 68.2099179 218.49294567 C68.19300862 208.05755976 68.20566275 197.62306784 68.25606923 187.1877864 C68.28780211 180.03301914 68.2827876 172.878867 68.24884398 165.72411221 C68.23034107 161.59502947 68.22807114 157.46761313 68.26943016 153.33865929 C68.30696075 149.55617395 68.29822204 145.77668677 68.25305675 141.99431098 C68.2409559 139.98202507 68.27803263 137.96962784 68.3169862 135.95768261 C68.21835519 129.15478296 68.21835519 129.15478296 64.83108306 123.4805336 C62.30770331 121.44313869 59.75045985 119.71271569 57 118 C55.65563026 116.94087355 54.32388656 115.86513641 53.015625 114.76171875 C52.08931274 114.00556274 52.08931274 114.00556274 51.14428711 113.23413086 C50.20661499 112.46854858 50.20661499 112.46854858 49.25 111.6875 C43.66392755 107.13737806 38.03999277 102.64175299 32.36199951 98.20695496 C27.90485298 94.72267464 23.48098638 91.19815124 19.06640625 87.66015625 C18.38227661 87.11234497 17.69814697 86.56453369 16.99328613 86.00012207 C15.32860261 84.66706619 13.66426463 83.33357882 12 82 C11.99780016 83.93704929 11.99780016 83.93704929 11.99555588 85.9132309 C11.95984452 116.57602516 11.90358987 147.23870535 11.82207905 177.90140948 C11.81206174 181.6764601 11.80221758 185.45151115 11.79248047 189.2265625 C11.78956841 190.35386716 11.78956841 190.35386716 11.78659752 191.50394565 C11.75558669 203.66853951 11.73859943 215.83311451 11.72680578 227.99774045 C11.71438946 240.48220986 11.68687722 252.96658037 11.64538693 265.45098734 C11.62026523 273.15293884 11.60688174 280.85472631 11.60857043 288.55671936 C11.60860373 294.46522369 11.58762147 300.37353685 11.55883217 306.28197479 C11.55031319 308.70388617 11.54859672 311.1258325 11.55419731 313.54775238 C11.56082827 316.85589036 11.54293661 320.16303169 11.51898193 323.47106934 C11.53062256 324.90689369 11.53062256 324.90689369 11.54249835 326.37172461 C11.45735167 333.01935496 10.21762098 338.61397091 5.51740813 343.56018972 C0.44850012 347.97909165 -3.82183848 348.36725547 -10.30078125 348.265625 C-14.2361084 347.87835692 -15.99168775 346.56960005 -19 344 C-20.72872255 342.60361668 -22.45794555 341.20785281 -24.1875 339.8125 C-26.12627945 338.20987989 -28.06377899 336.60571017 -30 335 C-31.72789027 333.58177681 -33.45705646 332.16510669 -35.1875 330.75 C-36.08855469 330.01265625 -36.98960937 329.2753125 -37.91796875 328.515625 C-42.30447794 324.93525502 -46.70068822 321.36686872 -51.09643555 317.79785156 C-55.7712765 314.00124018 -60.43522694 310.19162131 -65.09375 306.375 C-68.7230529 303.40911806 -72.36130563 300.45434694 -76 297.5 C-83.27102868 291.59606423 -90.52530091 285.67203414 -97.765625 279.73046875 C-102.9723784 275.4618036 -108.20478029 271.22909926 -113.46875 267.03125 C-117.09676843 264.11987718 -120.68899646 261.16540964 -124.28515625 258.21484375 C-126.82171629 256.14544873 -129.37527806 254.09997889 -131.9375 252.0625 C-136.166869 248.68971207 -140.33019731 245.24337082 -144.47949219 241.77270508 C-148.59786723 238.32916231 -152.74718028 234.92543334 -156.90625 231.53125 C-159.94880225 229.04188907 -162.9830653 226.54277053 -166.015625 224.04125977 C-182.97458151 210.05043533 -182.97458151 210.05043533 -200.1875 196.375 C-205.26891721 192.41468342 -210.20794484 188.31789084 -215.10180664 184.12890625 C-219.60710862 180.29006906 -224.23562795 176.62700473 -228.90356445 172.98876953 C-234.34239678 168.74734591 -239.6784328 164.38754582 -245 160 C-250.31130098 155.63874863 -255.62767299 151.28597968 -261 147 C-264.39340939 144.29271884 -267.76723073 141.56386616 -271.125 138.8125 C-273.08327567 137.20826287 -275.0415804 135.60406141 -277 134 C-277.60650391 133.50306641 -278.21300781 133.00613281 -278.83789062 132.49414062 C-285.63817385 126.9278071 -292.44357087 121.38453868 -299.4375 116.0625 C-305.29106576 111.59988056 -310.96415376 106.94187387 -316.63037109 102.24462891 C-321.61405871 98.12046792 -326.65925643 94.08957499 -331.76147461 90.11352539 C-336.22067108 86.63154761 -340.61725331 83.07759193 -345 79.5 C-349.96232767 75.45017506 -354.95170051 71.44215874 -360 67.5 C-365.18741363 63.44642279 -370.32644327 59.33697701 -375.4375 55.1875 C-376.08783203 54.66027344 -376.73816406 54.13304687 -377.40820312 53.58984375 C-379.27849897 52.06746522 -381.14021481 50.5351931 -383 49 C-383.66918457 48.45553223 -384.33836914 47.91106445 -385.02783203 47.35009766 C-385.66962402 46.81819824 -386.31141602 46.28629883 -386.97265625 45.73828125 C-387.554104 45.26044189 -388.13555176 44.78260254 -388.73461914 44.2902832 C-390 43 -390 43 -390 41 C-387.76196316 39.33304842 -385.51623593 37.78188394 -383.1875 36.25 C-375.81208238 31.30478375 -368.65356576 26.11517586 -361.5612793 20.77246094 C-348.80684517 11.24515087 -348.80684517 11.24515087 -340.125 11.4375 C-339.07010376 11.45393555 -339.07010376 11.45393555 -337.99389648 11.47070312 C-328.36628605 11.87078852 -323.04305367 16.66992437 -316.2421875 22.96484375 C-313.40147097 25.54326415 -310.39481785 27.84757086 -307.3515625 30.1796875 C-302.82088763 33.6868212 -298.42094812 37.35629131 -294 41 C-292.6354445 42.12373172 -291.27085922 43.24742727 -289.90625 44.37109375 C-287.69135622 46.19515308 -285.47655017 48.01931855 -283.26196289 49.84375 C-276.31575248 55.56570338 -269.35988799 61.27539763 -262.37109375 66.9453125 C-255.39380383 72.60596919 -248.43041215 78.28199287 -241.5 84 C-230.84935609 92.78571189 -220.14515937 101.50367305 -209.3515625 110.11328125 C-203.93439294 114.45961497 -198.57948117 118.88294682 -193.2109375 123.2890625 C-188.84854827 126.86499283 -184.47681031 130.42579627 -180.0625 133.9375 C-175.31915988 137.72016364 -170.66158327 141.60015926 -166.0078125 145.4921875 C-160.48344543 150.09821822 -154.90473635 154.6380465 -149.32421875 159.17578125 C-144.31792118 163.25471835 -139.35669636 167.37938777 -134.4375 171.5625 C-129.96771082 175.36136616 -125.44318403 179.07221739 -120.84765625 182.71875 C-111.25744672 190.40144186 -101.8187355 198.27326897 -92.46166992 206.23754883 C-88.5682544 209.54281661 -84.59652359 212.73522157 -80.59375 215.90625 C-77.51919962 218.38811597 -74.50837375 220.93866946 -71.5 223.5 C-58.9878798 234.82448645 -58.9878798 234.82448645 -45 244 C-45.00368717 242.84870637 -45.00737434 241.69741274 -45.01117325 240.51123142 C-45.0978599 213.16371141 -45.16378967 185.8162064 -45.20426132 158.46857715 C-45.20926397 155.10038908 -45.21444127 151.73220131 -45.21972656 148.36401367 C-45.2207758 147.69348614 -45.22182505 147.02295861 -45.22290608 146.33211207 C-45.24029731 135.48408235 -45.27182788 124.63613768 -45.30861118 113.78815836 C-45.34605638 102.65185424 -45.36794413 91.51557916 -45.37635398 80.37921137 C-45.381567 74.1262738 -45.3938127 67.87352894 -45.42292023 61.62065315 C-45.45010453 55.73312841 -45.45843875 49.84587546 -45.45243073 43.95829391 C-45.4535296 41.7996199 -45.46146528 39.64093664 -45.4768219 37.48231697 C-45.49679665 34.52926685 -45.49191158 31.57723569 -45.48101807 28.62416077 C-45.49266943 27.77491297 -45.5043208 26.92566518 -45.51632524 26.0506826 C-45.42674402 17.03335105 -41.86787024 10.23795571 -35.79296875 3.72265625 C-25.93751783 -5.7463064 -11.65703353 -6.98759681 0 0 Z " fill="#9CA3AF" transform="translate(811,287)"/>
<path d="M0 0 C0.33 0 0.66 0 1 0 C1 73.59 1 147.18 1 223 C-0.65 222.34 -2.3 221.68 -4 221 C-2.515 220.01 -2.515 220.01 -1 219 C-0.69353619 216.07977513 -0.58452393 213.36939148 -0.60127258 210.44540405 C-0.59462576 209.54939724 -0.58797893 208.65339042 -0.58113068 207.73023188 C-0.56238913 204.70985228 -0.56511344 201.68986493 -0.56762695 198.66943359 C-0.5586166 196.51152481 -0.54829119 194.35362118 -0.53674316 192.19572449 C-0.5090617 186.32204995 -0.49987356 180.44847223 -0.49388909 174.57474089 C-0.48453433 168.44209136 -0.45833342 162.30951498 -0.43388367 156.1769104 C-0.39013497 144.55701257 -0.36163947 132.93712886 -0.33856028 121.3171736 C-0.31155339 108.09121844 -0.26763918 94.86533656 -0.22227156 81.63943362 C-0.12930543 54.42632876 -0.05767959 27.2132009 0 0 Z " fill="#9CA3AF" transform="translate(765,308)"/>
<path d="M0 0 C0.66 0.33 1.32 0.66 2 1 C0.37982158 2.33918806 -1.24629343 3.6711969 -2.875 5 C-3.77992188 5.7425 -4.68484375 6.485 -5.6171875 7.25 C-8 9 -8 9 -10 9 C-10.66 10.32 -11.32 11.64 -12 13 C-13.32 12.67 -14.64 12.34 -16 12 C-10.72 8.04 -5.44 4.08 0 0 Z " fill="#9CA3AF" transform="translate(449,308)"/>
<path d="M0 0 C0.33 0 0.66 0 1 0 C1.33 7.59 1.66 15.18 2 23 C1.01 22.67 0.02 22.34 -1 22 C-0.67 14.74 -0.34 7.48 0 0 Z " fill="#9CA3AF" transform="translate(876,730)"/>
<path d="M0 0 C1.34173403 0.92543709 2.67320159 1.86577405 4 2.8125 C5.11375 3.59560547 5.11375 3.59560547 6.25 4.39453125 C7.11625 5.18923828 7.11625 5.18923828 8 6 C8 6.99 8 7.98 8 9 C6.65826597 8.07456291 5.32679841 7.13422595 4 6.1875 C3.2575 5.66542969 2.515 5.14335938 1.75 4.60546875 C1.1725 4.07566406 0.595 3.54585937 0 3 C0 2.01 0 1.02 0 0 Z " fill="#9CA3AF" transform="translate(796,685)"/>
<path d="M0 0 C0.75410156 0.00451172 1.50820313 0.00902344 2.28515625 0.01367188 C4.14847127 0.02546501 6.01174555 0.04340058 7.875 0.0625 C7.875 0.3925 7.875 0.7225 7.875 1.0625 C6.88757813 1.11148437 5.90015625 1.16046875 4.8828125 1.2109375 C3.60148437 1.28570312 2.32015625 1.36046875 1 1.4375 C-0.91425781 1.54191406 -0.91425781 1.54191406 -2.8671875 1.6484375 C-6.20561699 1.73491106 -6.20561699 1.73491106 -8.125 4.0625 C-8.125 3.4025 -8.125 2.7425 -8.125 2.0625 C-8.785 1.7325 -9.445 1.4025 -10.125 1.0625 C-6.93675432 -0.53162284 -3.49603338 -0.03924735 0 0 Z " fill="#9CA3AF" transform="translate(471.125,298.9375)"/>
<path d="M0 0 C0.99 0.66 1.98 1.32 3 2 C2 5 2 5 -0.0625 6.1875 C-0.701875 6.455625 -1.34125 6.72375 -2 7 C-2 3.89448334 -1.4606285 2.64738916 0 0 Z " fill="#9CA3AF" transform="translate(867,874)"/>
<path d="M0 0 C1.98 0.99 1.98 0.99 4 2 C4 2.99 4 3.98 4 5 C3.01 5.66 2.02 6.32 1 7 C0.67 4.69 0.34 2.38 0 0 Z " fill="#9CA3AF" transform="translate(521,671)"/>
<path d="M0 0 C0.99 0 1.98 0 3 0 C1.9024777 2.99324263 1.32317108 3.84610901 -1.625 5.25 C-2.40875 5.4975 -3.1925 5.745 -4 6 C-2.1875 3 -2.1875 3 0 0 Z " fill="#9CA3AF" transform="translate(365,372)"/>
<path d="M0 0 C0.66 0.33 1.32 0.66 2 1 C0.35 2.98 -1.3 4.96 -3 7 C-3.99 6.67 -4.98 6.34 -6 6 C-4.02 4.02 -2.04 2.04 0 0 Z " fill="#9CA3AF" transform="translate(778,288)"/>
</svg>
